REM DIRINDEX 1\2,1\3,1\4,1\5
REM DIRNAME folder01,folder02,folder03,folder04,folder05
TITLE ""
FILE "1Q_t_1739-1748.mp3" MP3
  TRACK 01 AUDIO
    TITLE "3:cjc004_6124"
    INDEX 01 00:00:00
  TRACK 02 AUDIO
    TITLE "0:"
    INDEX 01 00:01:09
  TRACK 03 AUDIO
    TITLE "4:cjc004_6125"
    INDEX 01 00:01:36
  TRACK 04 AUDIO
    TITLE "0:"
    INDEX 01 00:02:49
  TRACK 05 AUDIO
    TITLE "5:cjc004_6126"
    INDEX 01 00:02:67
  TRACK 06 AUDIO
    TITLE "0:"
    INDEX 01 00:06:69
  TRACK 07 AUDIO
    TITLE "3:cjc004_6127"
    INDEX 01 00:07:47
  TRACK 08 AUDIO
    TITLE "0:"
    INDEX 01 00:08:72
  TRACK 09 AUDIO
    TITLE "4:cjc004_6128"
    INDEX 01 00:09:24
  TRACK 10 AUDIO
    TITLE "0:"
    INDEX 01 00:10:35
  TRACK 11 AUDIO
    TITLE "5:cjc004_6129"
    INDEX 01 00:10:55
  TRACK 12 AUDIO
    TITLE "0:"
    INDEX 01 00:15:48
  TRACK 13 AUDIO
    TITLE "3:cjc004_6130"
    INDEX 01 00:16:26
  TRACK 14 AUDIO
    TITLE "0:"
    INDEX 01 00:17:21
  TRACK 15 AUDIO
    TITLE "4:cjc004_6131"
    INDEX 01 00:17:51
  TRACK 16 AUDIO
    TITLE "0:"
    INDEX 01 00:19:03
  TRACK 17 AUDIO
    TITLE "5:cjc004_6132"
    INDEX 01 00:19:36
  TRACK 18 AUDIO
    TITLE "0:"
    INDEX 01 00:23:44
  TRACK 19 AUDIO
    TITLE "3:cjc004_6133"
    INDEX 01 00:24:22
  TRACK 20 AUDIO
    TITLE "0:"
    INDEX 01 00:25:29
  TRACK 21 AUDIO
    TITLE "4:cjc004_6134"
    INDEX 01 00:25:62
  TRACK 22 AUDIO
    TITLE "0:"
    INDEX 01 00:27:10
  TRACK 23 AUDIO
    TITLE "5:cjc004_6135"
    INDEX 01 00:27:39
  TRACK 24 AUDIO
    TITLE "0:"
    INDEX 01 00:32:09
  TRACK 25 AUDIO
    TITLE "3:cjc004_6136"
    INDEX 01 00:32:58
  TRACK 26 AUDIO
    TITLE "0:"
    INDEX 01 00:34:00
  TRACK 27 AUDIO
    TITLE "4:cjc004_6137"
    INDEX 01 00:34:22
  TRACK 28 AUDIO
    TITLE "0:"
    INDEX 01 00:35:37
  TRACK 29 AUDIO
    TITLE "5:cjc004_6138"
    INDEX 01 00:35:61
  TRACK 30 AUDIO
    TITLE "0:"
    INDEX 01 00:40:11
  TRACK 31 AUDIO
    TITLE "3:cjc004_6139"
    INDEX 01 00:40:60
  TRACK 32 AUDIO
    TITLE "0:"
    INDEX 01 00:42:06
  TRACK 33 AUDIO
    TITLE "4:cjc004_6140"
    INDEX 01 00:42:37
  TRACK 34 AUDIO
    TITLE "0:"
    INDEX 01 00:43:46
  TRACK 35 AUDIO
    TITLE "5:cjc004_6141"
    INDEX 01 00:43:70
  TRACK 36 AUDIO
    TITLE "0:"
    INDEX 01 00:48:08
  TRACK 37 AUDIO
    TITLE "3:cjc004_6142"
    INDEX 01 00:48:59
  TRACK 38 AUDIO
    TITLE "0:"
    INDEX 01 00:49:69
  TRACK 39 AUDIO
    TITLE "4:cjc004_6143"
    INDEX 01 00:50:21
  TRACK 40 AUDIO
    TITLE "0:"
    INDEX 01 00:51:69
  TRACK 41 AUDIO
    TITLE "5:cjc004_6144"
    INDEX 01 00:52:16
  TRACK 42 AUDIO
    TITLE "0:"
    INDEX 01 00:56:51
  TRACK 43 AUDIO
    TITLE "3:cjc004_6145"
    INDEX 01 00:57:33
  TRACK 44 AUDIO
    TITLE "0:"
    INDEX 01 00:58:52
  TRACK 45 AUDIO
    TITLE "4:cjc004_6146"
    INDEX 01 00:59:08
  TRACK 46 AUDIO
    TITLE "0:"
    INDEX 01 01:00:33
  TRACK 47 AUDIO
    TITLE "5:cjc004_6147"
    INDEX 01 01:00:60
  TRACK 48 AUDIO
    TITLE "0:"
    INDEX 01 01:06:00
  TRACK 49 AUDIO
    TITLE "3:cjc004_6148"
    INDEX 01 01:06:53
  TRACK 50 AUDIO
    TITLE "0:"
    INDEX 01 01:07:51
  TRACK 51 AUDIO
    TITLE "4:cjc004_6149"
    INDEX 01 01:08:03
  TRACK 52 AUDIO
    TITLE "0:"
    INDEX 01 01:09:42
  TRACK 53 AUDIO
    TITLE "5:cjc004_6150"
    INDEX 01 01:10:00
  TRACK 54 AUDIO
    TITLE "0:"
    INDEX 01 01:14:06
  TRACK 55 AUDIO
    TITLE "3:cjc004_6151"
    INDEX 01 01:14:55
  TRACK 56 AUDIO
    TITLE "0:"
    INDEX 01 01:15:66
  TRACK 57 AUDIO
    TITLE "4:cjc004_6152"
    INDEX 01 01:16:22
  TRACK 58 AUDIO
    TITLE "0:"
    INDEX 01 01:17:32
  TRACK 59 AUDIO
    TITLE "5:cjc004_6153"
    INDEX 01 01:17:59
  TRACK 60 AUDIO
    TITLE "0:"
    INDEX 01 01:22:46
